<svg width="23" height="23" viewBox="0 0 23 23" fill="none" xmlns="http://www.w3.org/2000/svg">
<path d="M22.6616 5.1117C22.4564 4.72917 22.1625 4.41039 21.8086 4.18645C21.4548 3.96252 21.053 3.84107 20.6425 3.83396H5.43974L4.75086 0.946275C4.68126 0.667521 4.52598 0.422331 4.31031 0.250639C4.09464 0.0789466 3.83129 -0.00913167 3.56315 0.000749368H1.18772C0.872714 0.000749368 0.570614 0.135368 0.347874 0.37499C0.125134 0.614612 0 0.939609 0 1.27849C0 1.61736 0.125134 1.94236 0.347874 2.18198C0.570614 2.4216 0.872714 2.55622 1.18772 2.55622H2.66048L5.93858 15.6658C6.00818 15.9446 6.16346 16.1897 6.37913 16.3614C6.5948 16.5331 6.85815 16.6212 7.12629 16.6113H17.8157C18.0351 16.6106 18.2499 16.5446 18.4365 16.4205C18.6231 16.2965 18.7741 16.1193 18.8728 15.9086L22.7685 7.52662C22.9374 7.14587 23.016 6.72608 22.9973 6.3047C22.9787 5.88332 22.8633 5.47346 22.6616 5.1117ZM17.0793 14.0559H8.02896L6.09298 6.38943H20.6425L17.0793 14.0559Z" fill="#A0A0A0"/>
<path d="M6.53255 23C7.51649 23 8.31412 22.1419 8.31412 21.0834C8.31412 20.0249 7.51649 19.1668 6.53255 19.1668C5.54861 19.1668 4.75098 20.0249 4.75098 21.0834C4.75098 22.1419 5.54861 23 6.53255 23Z" fill="#A0A0A0"/>
<path d="M18.4095 23C19.3934 23 20.1911 22.1419 20.1911 21.0834C20.1911 20.0249 19.3934 19.1668 18.4095 19.1668C17.4256 19.1668 16.6279 20.0249 16.6279 21.0834C16.6279 22.1419 17.4256 23 18.4095 23Z" fill="#A0A0A0"/>
</svg>
