<svg width="21" height="21" viewBox="0 0 21 21" fill="none" xmlns="http://www.w3.org/2000/svg">
<path d="M19.0676 1.83343C18.5493 1.25188 17.934 0.790631 17.2568 0.476042C16.5796 0.161454 15.8537 -0.000308391 15.1208 4.41377e-07C14.3878 0.000309274 13.6621 0.162683 12.9851 0.477842C12.3081 0.793001 11.6931 1.25477 11.1752 1.83675L10.4992 2.60455L9.82884 1.83841L9.82448 1.83352C9.30646 1.25225 8.69147 0.791157 8.01464 0.476573C7.33781 0.161989 6.61238 7.45036e-05 5.87979 7.45036e-05C5.14719 7.45036e-05 4.42176 0.161989 3.74493 0.476573C3.0681 0.791157 2.45311 1.25225 1.93509 1.83352L1.63393 2.17145C0.587743 3.34538 0 4.93756 0 6.59774C0 8.25793 0.587743 9.85011 1.63393 11.024L9.58229 19.9427L10.4799 20.998L10.5013 20.9739L10.5245 21L11.3655 20.0044L19.3687 11.0239C20.4133 9.84903 21 8.2572 21 6.5976C21 4.938 20.4133 3.34617 19.3687 2.17131L19.0676 1.83343ZM18.3823 9.91734L10.5013 18.7608L2.62004 9.91734C1.8354 9.03689 1.3946 7.84275 1.3946 6.59762C1.3946 5.35249 1.8354 4.15835 2.62004 3.27791L2.92124 2.93998C3.7055 2.05997 4.76906 1.56539 5.87817 1.56492C6.98728 1.56445 8.05117 2.05814 8.83602 2.93749L10.4962 4.83433L12.1643 2.93998C12.5528 2.50403 13.0141 2.15821 13.5217 1.92227C14.0293 1.68633 14.5734 1.56489 15.1228 1.56489C15.6723 1.56489 16.2164 1.68633 16.724 1.92227C17.2316 2.15821 17.6928 2.50403 18.0814 2.93998L18.3825 3.27786C19.166 4.15903 19.6059 5.35293 19.6059 6.59764C19.6059 7.84235 19.1658 9.03622 18.3823 9.91734Z" fill="#A0A0A0"/>
</svg>
